<?xml version="1.0" encoding="utf-8"?>
<!-- Generator: Adobe Illustrator 17.0.0, SVG Export Plug-In . SVG Version: 6.00 Build 0)  -->
<!DOCTYPE svg PUBLIC "-//W3C//DTD SVG 1.1//EN" "http://www.w3.org/Graphics/SVG/1.1/DTD/svg11.dtd">
<svg version="1.1" xmlns="http://www.w3.org/2000/svg" xmlns:xlink="http://www.w3.org/1999/xlink" x="0px" y="0px" width="998px"
	 height="693px" viewBox="0 0 998 693" enable-background="new 0 0 998 693" xml:space="preserve">
<g id="Layer_2">
	<g>
		<path fill="#262262" d="M546.732,655.431c-21.995,8.69-58.003,8.729-80.017,0.085L-19.682,464.531
			c-22.014-8.644-20.675-15.696,2.975-15.672l1040.444,1.072c23.65,0.024,25.004,7.155,3.008,15.845L546.732,655.431z"/>
	</g>
	<rect x="0.053" y="-32.233" fill="#262262" width="998" height="484.048"/>
</g>
<g id="Layer_1">
	<g>
		<g>
			<path fill="#FFFFFF" d="M682.956,375.2c-7.807-10.701-13.537-4.74-17.293-1.55c-7.225,6.136-16.576,12.94-28.346,19.493
				c-59.024,32.863-119.737,41.688-180.02,36.664c-71.985-6-129.521-6.95-170.777,2.667c-2.919,0.514-6.224,1.198-9.948,2.448
				c0.67-14.915,0.95-27.012,1.466-38.504c0.549-12.225,1.313-23.769,3.143-37.241c0.242-5.379-7.994-7.464-12.446-6.497
				c-4.206,0.913-7.928,1.963-8.136,6.609c-0.077,1.712,0.242,5.516,0.132,7.962c-0.901,20.048-15.281,56.582-40.515,62.061
				c-15.833,3.438-26.967-15.934-25.385-51.141c1.922-42.786,30.029-95.858,60.953-102.573c11.38-2.471,14.728,4.791,14.476,10.415
				c-0.703,15.648-19.411,33.994-32.028,36.733c-7.175,1.558-7.559-0.779-9.291-0.403c-1.732,0.375-2.963,5.969-3.116,9.392
				c-0.362,8.068,4.42,10.661,10.358,9.372c21.523-4.674,52.479-33.912,53.676-60.562c0.846-18.826-12.245-27.362-30.057-23.495
				c-49.231,10.69-83.33,77.169-85.515,125.823c-2.054,45.72,13.902,72.276,44.579,65.615c15.09-3.277,28.35-14.872,39.421-32.287
				c-0.263,5.869-0.131,13.829-0.603,24.342l-0.11,2.445c-23.314,11.842-46.421,29.933-47.541,54.872
				c-0.736,16.38,9.589,26.485,26.412,22.832c28.763-6.245,36.225-39.183,38.739-66.73c27.964-9.036,83.447-18.074,180.097-6.242
				c41.505,5.082,80.1,4.408,114.713-2.003c27.913-5.168,53.326-14.058,75.532-26.422c14.026-7.809,24.993-16.012,33.296-23.325
				C683.475,391.871,688.619,382.962,682.956,375.2z M237.785,501.761c-4.948,1.075-8.764-1.244-8.434-8.579
				c0.549-12.225,10.109-23.259,26.668-31.938C253.903,481.072,248.918,499.344,237.785,501.761z"/>
		</g>
		<g>
			<path fill="#FFFFFF" d="M325.392,394.853c0.703-15.648,5.936-33.973,14.797-56.719l-18.802,4.083l-2.721,0.591
				c-0.675,9.588-3.115,31.181-8.206,46.33c-3.677,10.966-16.146,4.958-13.546-3.838c3.161-10.37,5.061-30.878,5.869-43.401
				c-6.031-2.08-10.253-6.248-9.935-13.338c0.307-6.846,6.443-12.536,12.875-13.932c5.937-1.29,12.733,0.14,15.003,9.573
				c8.12-0.794,10.594-1.332,13.068-1.869l12.864-2.793c2.969-0.645,12.502,5.275,11.26,11.113
				c-0.132,2.933-12.56,34.201-13.659,58.65c-0.307,6.846,2.623,12.505,9.303,11.054c11.38-2.471,16.288-19.032,18.998-30.273
				c1.221-5.35,3.793-8.087,6.267-8.624c3.959-0.86,8.417,3.498,8.209,8.143c-0.033,0.734-0.302,1.277-0.324,1.765
				c-5.178,17.103-15.814,41.203-37.09,45.822C337.994,419.717,324.426,416.368,325.392,394.853z"/>
		</g>
		<g>
			<path fill="#FFFFFF" d="M393.33,376.711c3.091,7.561,9.462,12.957,22.327,10.163c19.297-4.19,27.927-21.802,31.566-37.36
				c2.72-11.486,16.355-9.603,14.981-0.832c-2.401,15.29-13.626,47.023-49.993,54.919c-22.512,4.888-42.986-8.34-41.613-38.901
				c1.395-31.051,21.24-58.361,40.289-62.497c13.854-3.008,21.815,5.19,21.156,19.859
				C431.229,340.155,417.647,364.41,393.33,376.711z M390.966,363.909c12.622-8.309,21.109-22.742,21.768-37.411
				c0.242-5.379-1.594-8.128-4.81-7.429c-12.123,2.632-17.042,30.332-17.007,40.493
				C390.851,361.028,391.032,362.442,390.966,363.909z"/>
		</g>
		<g>
			<path fill="#FFFFFF" d="M466.808,360.756c3.09,7.561,9.462,12.956,22.327,10.163c19.297-4.19,27.927-21.802,31.566-37.36
				c2.72-11.486,16.354-9.604,14.981-0.832c-2.401,15.291-13.626,47.023-49.993,54.92c-22.512,4.888-42.986-8.34-41.613-38.901
				c1.395-31.051,21.24-58.361,40.289-62.497c13.854-3.009,21.815,5.19,21.156,19.859
				C504.707,324.201,491.124,348.456,466.808,360.756z M464.443,347.954c12.622-8.31,21.11-22.742,21.769-37.411
				c0.242-5.379-1.594-8.128-4.811-7.43c-12.122,2.632-17.041,30.332-17.007,40.493
				C464.328,345.073,464.509,346.487,464.443,347.954z"/>
		</g>
		<g>
			<path fill="#FFFFFF" d="M568.794,319.749c-2.474,0.537-5.047,3.274-6.267,8.624c-2.71,11.241-7.865,27.856-17.761,30.005
				c-5.195,1.128-8.259-1.596-7.907-9.42c0,0,4.806-106.979,5.009-111.508c-6.053,0.749-14.706-1.681-18.219-8.901l-0.989,22.028
				c-38.515,0.395-70.614,11.784-85.793,21.357c-8.898,5.612-7.631,13.025-4.511,17.379c2.603,3.634,8.406,3.901,14.372,0.395
				c13.758-8.086,41.399-21.472,75.194-22.69l-3.875,86.266c-0.867,19.315,8.182,25.098,21.542,22.196
				c21.276-4.62,32.16-28.773,37.091-45.822c0.29-1.032,0.312-1.52,0.323-1.766C577.211,323.246,572.752,318.889,568.794,319.749z"
				/>
		</g>
		<g>
			<path fill="#FFFFFF" d="M562.285,250.929c0.384-8.557,7.349-16.364,15.513-18.137c8.659-1.88,14.805,3.08,14.421,11.637
				c-0.362,8.069-7.102,16.311-15.76,18.191C568.294,264.393,561.923,258.998,562.285,250.929z M583.404,339.312
				c-0.099,2.2-0.505,11.247,5.927,9.85c9.895-2.149,15.051-18.764,17.761-30.005c3.638-15.559,16.482-6.969,14.151,1.285
				c-5.177,17.103-15.815,41.203-37.089,45.823c-13.112,2.847-20.309-6-19.749-18.469l2.932-65.28
				c0.209-4.645-0.715-5.897-0.638-7.609c0.11-2.445,3.155-4.801,6.619-5.553c8.163-1.773,13.139,1.989,12.875,7.857
				L583.404,339.312z"/>
		</g>
		<g>
			<path fill="#FFFFFF" d="M610.134,273.223c0.209-4.645-0.714-5.897-0.637-7.609c0.11-2.445,3.155-4.801,6.618-5.553
				c8.164-1.773,13.139,1.989,12.876,7.857l-0.494,11.002c7.295-15.141,16.674-27.589,28.797-30.221
				c16.575-3.599,19.929,8.988,19.424,20.235l-2.273,50.611c-0.099,2.2-0.505,11.247,5.927,9.85
				c9.895-2.149,15.051-18.763,17.761-30.005c1.22-5.35,3.793-8.087,6.267-8.624c3.958-0.86,8.417,3.498,8.208,8.143
				c-0.011,0.245-0.033,0.734-0.324,1.765c-4.931,17.05-15.813,41.203-37.09,45.822c-13.112,2.847-20.309-6-19.749-18.469
				l2.229-49.633c0.34-7.579,0.131-13.828-4.57-12.807c-7.174,1.558-23.457,25.915-26.057,45.606l-1.603,35.696
				c-0.209,4.645-0.225,10.46-7.398,12.017c-4.948,1.075-11.799,0.868-11.392-8.179L610.134,273.223z"/>
		</g>
		<g>
			<path fill="#FFFFFF" d="M740.383,346.638l1.113-25.674c-5.158,5.972-12.005,11.345-20.661,13.239
				c-19.291,4.22-28.731-9.699-27.829-30.483c1.771-40.834,31.541-72.049,61.712-78.65c6.677-1.461,11.207,1.424,10.931,7.781
				c-0.18,4.157-0.986,5.786-3.459,6.327c-2.226,0.487-4.678,0.54-7.152,1.081c-18.795,4.112-41.494,24.819-43.021,60.029
				c-0.551,12.714,4.571,18.86,13.227,16.966c9.892-2.164,15.401-16.205,17.556-26.365l1.198-27.63
				c0.201-4.646-0.724-5.896-0.65-7.608c0.106-2.445,3.148-4.805,6.611-5.562c8.161-1.786,13.142,1.968,12.888,7.836l-2.884,66.507
				c9.328-11.728,17.772-25.685,23.449-43.638c1.706-5.46,3.779-8.092,6.253-8.633c3.957-0.865,8.423,3.485,8.222,8.13
				c-0.011,0.245-0.064,1.468-0.353,2.5c-9.639,30.203-24.608,47.767-38.462,62.18l-1.834,42.3
				c-1.113,25.674-14.613,37.588-27.225,40.347c-13.85,3.03-23.202-7.276-22.523-22.925
				C708.561,379.998,723.446,364.391,740.383,346.638z M738.442,391.383l1.135-26.162c-8.264,9.8-14.107,20.281-14.743,34.952
				c-0.329,7.58,1.89,12.907,5.847,12.041C738.594,410.483,738.241,396.029,738.442,391.383z"/>
		</g>
		<g>
			<path fill="#FFFFFF" d="M784.346,278.005c2.957-11.295,8.778-26.359,13.813-40.285c-2.309-3.13-3.628-6.475-3.442-10.631
				c0.373-8.313,15.216-22.431,21.895-23.882c5.937-1.289,8.71,2.467,8.413,9.068c-0.318,7.091-6.371,16.395-6.685,17.915
				c10.717,17.768,25.413,23.293,24.369,46.52c-0.132,2.934-0.77,6.22-1.633,9.07c11.737-4.97,20.957-18.639,24.03-27.054
				c1.941-5.021,5.32-5.87,7.545-6.354c4.206-0.913,11.187,3.483,10.121,9.529c-0.849,4.82-7.144,15.916-13.042,21.797
				c-7.943,7.777-23.644,16.004-39.028,20.313c-6.167,6.424-14.496,11.864-24.639,14.066c-10.391,2.257-22.013-0.789-26.752-4.359
				c-11.607-8.859-4.345-23.268,1.098-24.449c4.948-1.075,26.823,8.218,39.193,5.531c2.864-3.769,5.838-9.983,6.113-16.096
				c0.692-15.402-8.001-23.684-16.265-30.605c-4.386,10.394-7.233,19.244-10.977,31.678
				C795.293,290.639,781.993,286.747,784.346,278.005z"/>
		</g>
		<g>
			<path fill="#FFFFFF" d="M210.081,157.557c0.253-5.623-3.096-12.885-14.476-10.414c-32.656,7.091-59.849,61.66-61.64,101.512
				c-1.362,30.317,7.485,56.965,35.935,50.787c21.028-4.566,34.541-21.785,35.047-22.137c6.904-11.91,18.246,2.817,12.046,9.974
				c-0.775,0.894-19.714,24.376-49.648,30.876c-35.377,7.682-55.291-18.015-53.171-65.202
				c2.142-47.676,36.218-113.666,85.449-124.356c17.812-3.868,30.925,4.18,29.969,25.451c-1.351,30.073-40.68,65.728-68.14,71.691
				c-5.937,1.289-10.72-1.303-10.358-9.371c0.154-3.423,1.341-8.039,3.072-8.415c1.732-0.375,2.117,1.962,9.291,0.404
				C181.765,204.38,209.147,178.339,210.081,157.557z"/>
		</g>
		<g>
			<path fill="#FFFFFF" d="M241.604,142.965c0.318-7.09-2.133-7.042-2.056-8.753c0.077-1.712,4.574-3.656,8.037-4.408
				c8.164-1.773,13.14,1.989,12.876,7.856l-3.602,80.194c7.295-15.142,16.674-27.59,28.795-30.222
				c16.575-3.599,19.929,8.988,19.424,20.235l-2.273,50.611c-0.099,2.2-0.505,11.247,5.927,9.85
				c9.896-2.149,15.052-18.764,17.761-30.005c3.639-15.558,16.482-6.968,14.151,1.285c-5.178,17.103-15.815,41.203-37.09,45.822
				c-13.112,2.847-20.309-6-19.749-18.469l2.229-49.633c0.34-7.58,0.131-13.828-4.569-12.808
				c-7.174,1.558-23.457,25.915-26.057,45.606l0,0c-0.066,1.479,0.041,2.987-0.768,3.073c-2.269,0.241-4.817,0.596-9.391,2.624
				c-4.012,1.779-9.027,5.114-9.027,5.114s0.186-2.322,0.288-4.593L241.604,142.965z"/>
		</g>
		<g>
			<path fill="#FFFFFF" d="M355.276,246.599c0.703-15.648,5.935-33.973,14.797-56.718l-18.802,4.083l-2.721,0.591
				c-0.675,9.588-3.116,31.182-8.206,46.33c-3.677,10.967-16.146,4.958-13.546-3.838c3.161-10.371,5.061-30.878,5.87-43.402
				c-6.032-2.08-10.254-6.248-9.935-13.338c0.307-6.846,6.443-12.536,12.875-13.932c5.937-1.289,12.733,0.139,15.004,9.573
				c8.12-0.794,10.593-1.331,13.068-1.869l12.865-2.793c2.969-0.644,12.502,5.275,11.259,11.113
				c-0.132,2.933-12.56,34.201-13.658,58.65c-0.307,6.846,2.623,12.505,9.302,11.054c11.38-2.472,16.289-19.032,18.999-30.274
				c1.221-5.35,3.793-8.086,6.267-8.623c3.959-0.86,8.417,3.498,8.209,8.143c-0.033,0.734-0.302,1.277-0.324,1.765
				c-5.178,17.103-15.814,41.203-37.09,45.823C367.878,271.463,354.31,268.114,355.276,246.599z"/>
		</g>
		<g>
			<path fill="#FFFFFF" d="M406.052,125.172c0.384-8.557,7.349-16.364,15.513-18.136c8.659-1.88,14.805,3.08,14.421,11.637
				c-0.362,8.069-7.102,16.312-15.761,18.192C412.061,138.636,405.689,133.241,406.052,125.172z M421.555,232.692
				c-0.099,2.2-0.505,11.247,5.928,9.85c9.896-2.149,15.051-18.764,17.761-30.005c3.639-15.559,16.482-6.969,14.151,1.285
				c-5.178,17.103-15.815,41.203-37.091,45.822c-13.112,2.847-20.309-6-19.749-18.469l2.932-65.28
				c0.209-4.645-0.715-5.897-0.638-7.609c0.11-2.445,3.155-4.801,6.619-5.554c8.163-1.772,13.139,1.99,12.875,7.857L421.555,232.692
				z"/>
		</g>
		<g>
			<g>
				<path fill="#FFFFFF" d="M446.105,209.687c2.957-11.295,8.778-26.359,13.814-40.284c-2.31-3.13-3.629-6.476-3.442-10.632
					c0.373-8.313,15.216-22.431,21.895-23.881c5.938-1.289,8.709,2.466,8.413,9.068c-0.319,7.091-6.371,16.395-6.685,17.916
					c10.717,17.768,25.412,23.293,24.368,46.52c-0.132,2.934-0.769,6.219-1.632,9.07c11.737-4.97,18.004-13.594,21.077-22.009
					c1.94-5.021,3.761-7.353,5.987-7.837c4.206-0.913,8.62,4.424,8.467,7.847c-0.22,4.889-6.327,15.417-12.226,21.297
					c-7.943,7.777-18.295,14.625-33.678,18.933c-6.168,6.424-14.496,11.864-24.639,14.066c-10.391,2.257-22.013-0.789-26.752-4.36
					c-11.606-8.858-4.345-23.267,1.098-24.449c4.948-1.074,26.824,8.218,39.193,5.532c2.864-3.77,5.838-9.983,6.113-16.096
					c0.692-15.402-8.001-23.684-16.264-30.605c-4.386,10.395-7.234,19.245-10.977,31.678
					C457.052,222.32,443.752,218.429,446.105,209.687z"/>
			</g>
		</g>
		<g>
			<path fill="#FFFFFF" d="M528.673,116.704l1.856-41.319c0.318-7.09-2.133-7.042-2.056-8.753c0.077-1.712,4.574-3.657,8.037-4.409
				c8.164-1.772,13.139,1.99,12.875,7.857l-1.922,42.786c15.091-3.277,32.42-7.281,49.276-11.668
				c7.255-8.838,3.974,15.117-2.468,16.758c-19.813,4.786-34.41,7.955-47.522,10.802l-3.481,77.505
				c-0.351,7.824,2.712,10.548,7.906,9.42c9.896-2.149,15.052-18.763,17.761-30.005c1.22-5.35,3.793-8.086,6.267-8.623
				c3.959-0.859,8.417,3.498,8.209,8.143c-0.011,0.245-0.033,0.734-0.324,1.766c-4.93,17.049-15.815,41.203-37.09,45.823
				c-13.36,2.901-22.409-2.882-21.542-22.196l3.492-77.749c-10.885,2.364-17.049,3.218-17.049,3.218
				c-7.916,1.72-11.634-13.695-4.459-15.253C506.441,120.805,515.325,119.361,528.673,116.704z"/>
		</g>
		<g>
			<path fill="#FFFFFF" d="M680.332,203.616c-13.112,2.847-20.309-6-19.749-18.469l2.229-49.633
				c0.34-7.58,0.133-13.828-4.073-12.915c-6.68,1.451-21.726,25.539-24.077,45.176l-1.603,35.696
				c-0.209,4.645-0.225,10.459-7.399,12.017c-4.949,1.074-11.798,0.867-11.391-8.18l2.779-61.856
				c0.34-7.58,0.131-13.828-4.076-12.915c-6.679,1.451-21.725,25.539-24.077,45.176l-1.603,35.696
				c-0.209,4.645-0.225,10.46-7.398,12.017c-4.948,1.075-11.799,0.868-11.392-8.18l3.481-77.504
				c0.209-4.645-0.715-5.897-0.638-7.609c0.11-2.445,3.155-4.801,6.619-5.553c8.163-1.773,13.139,1.989,12.875,7.857l-0.461,10.269
				c7.026-14.599,16.145-26.748,27.278-29.165c14.843-3.224,18.511,7.844,18.512,18.739c6.767-14.301,15.875-26.206,27.008-28.623
				c16.08-3.492,19.186,9.149,18.681,20.396l-2.273,50.611c-0.099,2.2-0.505,11.247,5.927,9.85
				c9.896-2.149,15.051-18.764,17.761-30.005c1.221-5.35,3.793-8.087,6.268-8.624c3.958-0.859,8.417,3.498,8.208,8.143
				c-0.011,0.245-0.033,0.734-0.324,1.766C712.245,174.897,701.608,198.996,680.332,203.616z"/>
		</g>
		<g>
			<path fill="#FFFFFF" d="M790.853,137.491c1.22-5.35,3.793-8.086,6.267-8.623c3.958-0.859,8.418,3.498,8.209,8.143
				c-0.011,0.245-0.033,0.734-0.325,1.766c-4.931,17.049-15.815,41.203-37.09,45.822c-8.659,1.88-15.151-0.826-18.599-5.888
				c-5.201,6.697-12.326,12.603-21.727,14.644c-19.297,4.19-28.715-9.743-27.781-30.526c1.834-40.83,31.652-72,61.833-78.554
				c6.68-1.451,11.205,1.441,10.919,7.797c-0.187,4.157-0.994,5.784-3.469,6.321c-2.227,0.484-4.677,0.532-7.152,1.07
				c-18.802,4.083-41.533,24.755-43.114,59.963c-0.571,12.713,4.541,18.867,13.2,16.987c6.681-1.451,11.397-8.286,14.425-15.722
				l1.691-37.651c0.209-4.646-0.715-5.898-0.638-7.609c0.11-2.446,3.156-4.802,6.619-5.554c8.164-1.773,13.14,1.989,12.877,7.857
				l-1.812,40.341c-0.242,5.378,1.968,10.709,7.905,9.42C782.987,165.347,788.143,148.733,790.853,137.491z"/>
		</g>
		<g>
			<path fill="#FFFFFF" d="M791.715,134.641c2.957-11.295,8.778-26.359,13.814-40.285c-2.31-3.13-3.629-6.475-3.443-10.631
				c0.373-8.313,15.216-22.432,21.896-23.882c5.936-1.29,8.709,2.467,8.412,9.068c-0.319,7.091-6.371,16.394-6.685,17.915
				c10.717,17.768,25.413,23.293,24.369,46.52c-0.132,2.934-0.77,6.219-1.633,9.07c11.737-4.969,18.004-13.594,21.078-22.009
				c1.94-5.021,3.76-7.354,5.987-7.837c4.205-0.914,8.62,4.423,8.466,7.846c-0.22,4.889-6.327,15.416-12.226,21.297
				c-7.943,7.777-18.295,14.625-33.677,18.934c-6.168,6.424-14.497,11.864-24.64,14.066c-10.391,2.256-22.013-0.789-26.752-4.359
				c-11.607-8.859-4.345-23.268,1.098-24.449c4.948-1.075,26.823,8.218,39.193,5.532c2.864-3.769,5.838-9.984,6.113-16.097
				c0.692-15.402-8-23.684-16.265-30.605c-4.386,10.394-7.233,19.245-10.977,31.678
				C802.662,147.274,789.362,143.383,791.715,134.641z"/>
		</g>
	</g>
</g>
</svg>
