<?xml version="1.0" encoding="utf-8"?>
<!-- Generator: Adobe Illustrator 17.0.0, SVG Export Plug-In . SVG Version: 6.00 Build 0)  -->
<!DOCTYPE svg PUBLIC "-//W3C//DTD SVG 1.1//EN" "http://www.w3.org/Graphics/SVG/1.1/DTD/svg11.dtd">
<svg version="1.1" id="Layer_1" xmlns="http://www.w3.org/2000/svg" xmlns:xlink="http://www.w3.org/1999/xlink" x="0px" y="0px"
	 width="348.883px" height="76.84px" viewBox="0 0 348.883 76.84" enable-background="new 0 0 348.883 76.84" xml:space="preserve">
<path fill="#FFFFFF" d="M117.489,32.537V49.28c0,3.597-2.375,4.941-5.357,4.941c-3.075,0-4.886-1.812-4.886-4.941V31.965
	l-3.473,0.571v14.914c0,6.977,1.949,9.959,8.646,9.959c6.14,0,8.551-2.488,8.551-9.959V31.965L117.489,32.537L117.489,32.537z"/>
<polygon fill="#FFFFFF" points="137.874,56.839 137.874,40.388 153.47,57.41 153.539,57.41 153.539,32.537 150.062,33.095 
	150.062,48.979 134.479,31.965 134.401,31.965 134.401,57.273 137.874,56.839 "/>
<polygon fill="#FFFFFF" points="170.388,56.839 170.388,31.965 166.907,32.537 166.907,57.131 170.388,56.839 "/>
<polygon fill="#FFFFFF" points="196.47,31.965 190.275,48.828 190.202,48.828 184.25,31.965 180.806,32.537 190.202,57.41 
	190.275,57.41 199.942,32.537 196.47,31.965 "/>
<polygon fill="#FFFFFF" points="224.047,56.839 225.036,53.659 214.02,53.659 214.02,45.786 222.203,45.786 222.203,42.593 
	214.02,42.593 214.02,35.711 224.268,35.711 223.517,32.537 210.547,32.537 210.547,56.839 224.047,56.839 "/>
<path fill-rule="evenodd" clip-rule="evenodd" fill="#FFFFFF" d="M240.329,56.839V45.045h0.078l8.468,12.365l3.902-0.988
	l-7.342-10.179c3.334-0.751,5.397-2.727,5.397-6.341c0-5.536-4.369-7.366-7.983-7.366h-5.997v24.737L240.329,56.839L240.329,56.839z
	 M240.329,35.711h2.484c2.69,0,4.547,1.323,4.547,4.191c0,2.653-2.177,4.36-4.547,4.36h-2.484V35.711L240.329,35.711z"/>
<path fill="#FFFFFF" d="M262.733,53.472c2.204,2.352,4.23,3.938,7.562,3.938c4.219,0,7.548-3.078,7.548-7.407
	c0-8.398-11.12-6.121-11.12-11.125c0-2.301,1.582-3.724,3.815-3.724c2.025,0,3.366,1.317,4.689,2.685l2.338-2.328
	c-1.605-2.132-4.154-3.545-6.844-3.545c-4.397,0-7.484,2.625-7.484,6.912c0,8.537,11.14,5.454,11.14,11.081
	c0,3.024-1.89,4.264-4.447,4.264c-1.939,0-3.642-1.317-4.635-2.873L262.733,53.472L262.733,53.472z"/>
<polygon fill="#FFFFFF" points="293.838,56.839 293.838,31.965 290.369,32.537 290.369,57.131 293.838,56.839 "/>
<polygon fill="#FFFFFF" points="311.099,35.711 311.099,57.273 314.567,56.839 314.567,35.711 320.244,35.711 320.244,32.537 
	305.883,32.537 304.781,35.711 311.099,35.711 "/>
<polygon fill="#FFFFFF" points="344.614,31.965 339.526,43.791 332.478,31.965 329.068,32.957 337.88,47.488 333.644,56.674 
	337.042,57.41 347.958,32.985 344.614,31.965 "/>
<path fill="#FFFFFF" d="M118.248,0.654c-1.363-0.343-2.708-0.595-4.081-0.595c-6.139,0-11.588,6.56-11.588,12.723
	c0,6.762,5.243,12.727,12.115,12.727c1.454,0,2.841-0.43,4.195-0.896l0.636-3.788c-1.428,0.883-3.088,1.491-4.763,1.491
	c-5.128,0-8.72-4.785-8.72-9.671c0-4.853,3.902-9.387,8.866-9.387c1.528,0,2.8,0.274,4.072,1.162L118.248,0.654L118.248,0.654z"/>
<path fill-rule="evenodd" clip-rule="evenodd" fill="#FFFFFF" d="M129.374,12.782c0,7.155,5.718,12.727,12.75,12.727
	c7.018,0,12.755-5.572,12.755-12.727c0-7.155-5.737-12.723-12.755-12.723C135.093,0.06,129.374,5.627,129.374,12.782L129.374,12.782
	z M132.842,12.782c0-5.078,4.186-9.524,9.282-9.524c5.101,0,9.283,4.446,9.283,9.524c0,5.06-4.182,9.534-9.283,9.534
	C137.028,22.316,132.842,17.842,132.842,12.782L132.842,12.782z"/>
<polygon fill="#FFFFFF" points="168.736,24.933 168.736,8.5 184.341,25.509 184.4,25.509 184.4,0.622 180.934,1.194 180.934,17.074 
	165.332,0.06 165.273,0.06 165.273,25.354 168.736,24.933 "/>
<path fill="#FFFFFF" d="M210.428,0.654c-1.341-0.343-2.694-0.595-4.072-0.595c-6.125,0-11.588,6.56-11.588,12.723
	c0,6.762,5.247,12.727,12.115,12.727c1.459,0,2.845-0.43,4.181-0.896l0.641-3.788c-1.414,0.883-3.074,1.491-4.739,1.491
	c-5.143,0-8.729-4.785-8.729-9.671c0-4.853,3.898-9.387,8.856-9.387c1.538,0,2.801,0.274,4.095,1.162L210.428,0.654L210.428,0.654z"
	/>
<path fill-rule="evenodd" clip-rule="evenodd" fill="#FFFFFF" d="M221.549,12.782c0,7.155,5.756,12.727,12.77,12.727
	c7.018,0,12.764-5.572,12.764-12.727c0-7.155-5.746-12.723-12.764-12.723C227.305,0.06,221.549,5.627,221.549,12.782L221.549,12.782
	z M225.036,12.782c0-5.078,4.171-9.524,9.282-9.524c5.091,0,9.287,4.446,9.287,9.524c0,5.06-4.196,9.534-9.287,9.534
	C229.207,22.316,225.036,17.842,225.036,12.782L225.036,12.782z"/>
<path fill-rule="evenodd" clip-rule="evenodd" fill="#FFFFFF" d="M260.692,24.933V13.139h0.064l8.468,12.37l3.893-0.993
	l-7.324-10.174c3.331-0.736,5.385-2.722,5.385-6.345c0-5.536-4.364-7.375-7.974-7.375h-5.998v24.732L260.692,24.933L260.692,24.933z
	 M260.692,3.816h2.48c2.695,0,4.538,1.318,4.538,4.182c0,2.653-2.164,4.36-4.538,4.36h-2.48V3.816L260.692,3.816z"/>
<path fill-rule="evenodd" clip-rule="evenodd" fill="#FFFFFF" d="M282.313,24.933h6.07c7.357,0,12.257-5.874,12.257-12.151
	c0-6.277-4.9-12.16-12.257-12.16h-6.07V24.933L282.313,24.933z M285.79,3.816h2.594c4.101,0,8.774,3.413,8.774,8.967
	c0,5.554-4.674,8.971-8.774,8.971h-2.594V3.816L285.79,3.816z"/>
<polygon fill="#FFFFFF" points="314.429,24.933 314.429,0.06 310.952,0.622 310.952,25.226 314.429,24.933 "/>
<path fill-rule="evenodd" clip-rule="evenodd" fill="#FFFFFF" d="M326.406,25.509l4.107-8.368h9.786l4.141,8.368l3.485-0.714
	L335.552,0.06h-0.074l-12.332,24.736L326.406,25.509L326.406,25.509z M331.978,13.954l3.422-6.982l3.474,6.982H331.978
	L331.978,13.954z"/>
<polygon fill="#FFFFFF" points="106.042,76.557 106.042,68.217 113.957,76.84 113.984,76.84 113.984,64.231 112.223,64.524 
	112.223,72.567 104.322,63.948 104.294,63.948 104.294,76.775 106.042,76.557 "/>
<polygon fill="#FFFFFF" points="146.539,76.557 147.042,74.941 141.447,74.941 141.447,70.947 145.601,70.947 145.601,69.343 
	141.447,69.343 141.447,65.852 146.644,65.852 146.265,64.231 139.69,64.231 139.69,76.557 146.539,76.557 "/>
<path fill-rule="evenodd" clip-rule="evenodd" fill="#FFFFFF" d="M171.802,76.557h3.591c2.113,0,3.92-0.971,3.92-3.413
	c0-1.313-0.754-2.653-2.063-3.029c0.956-0.622,1.629-1.453,1.629-2.631c0-1.843-1.505-3.252-3.362-3.252h-3.714V76.557
	L171.802,76.557z M173.554,70.994h1.61c1.445,0,2.384,0.612,2.384,2.149c0,1.373-0.966,1.876-2.384,1.876h-1.61V70.994
	L173.554,70.994z M173.554,65.777h1.61c1.295,0,1.949,0.586,1.949,1.706c0,1.269-0.847,2.037-1.949,2.037h-1.61V65.777
	L173.554,65.777z"/>
<path fill-rule="evenodd" clip-rule="evenodd" fill="#FFFFFF" d="M205.98,76.557v-5.984h0.032l4.305,6.268l1.968-0.503l-3.715-5.151
	c1.688-0.385,2.722-1.387,2.722-3.221c0-2.8-2.205-3.733-4.044-3.733h-3.028v12.544L205.98,76.557L205.98,76.557z M205.98,65.852
	h1.249c1.373,0,2.316,0.658,2.316,2.113c0,1.354-1.103,2.214-2.316,2.214h-1.249V65.852L205.98,65.852z"/>
<path fill-rule="evenodd" clip-rule="evenodd" fill="#FFFFFF" d="M236.921,76.84l2.072-4.241h4.96l2.113,4.241l1.762-0.366
	l-6.277-12.525h-0.031l-6.25,12.525L236.921,76.84L236.921,76.84z M239.739,70.994l1.734-3.541l1.765,3.541H239.739L239.739,70.994z
	"/>
<path fill="#FFFFFF" d="M271.534,74.854c1.121,1.185,2.142,1.985,3.83,1.985c2.132,0,3.82-1.564,3.82-3.741
	c0-4.274-5.632-3.116-5.632-5.646c0-1.172,0.805-1.895,1.935-1.895c1.016,0,1.702,0.663,2.374,1.372l1.186-1.189
	c-0.814-1.079-2.1-1.793-3.478-1.793c-2.214,0-3.783,1.309-3.783,3.505c0,4.327,5.646,2.753,5.646,5.618
	c0,1.527-0.956,2.154-2.25,2.154c-0.989,0-1.85-0.674-2.357-1.445L271.534,74.854L271.534,74.854z"/>
<polygon fill="#FFFFFF" points="306.234,76.557 306.234,70.271 306.259,70.271 311.066,76.84 312.832,76.173 308.29,70.243 
	312.961,64.488 311.31,63.733 306.259,70.179 306.234,70.179 306.234,63.948 304.46,64.231 304.46,76.84 306.234,76.557 "/>
<path fill-rule="evenodd" clip-rule="evenodd" fill="#FFFFFF" d="M337.989,76.84l2.069-4.241h4.967l2.097,4.241l1.761-0.366
	l-6.267-12.525h-0.037l-6.263,12.525L337.989,76.84L337.989,76.84z M340.803,70.994l1.73-3.541l1.771,3.541H340.803L340.803,70.994z
	"/>
<g>
	<polygon fill="#FFFFFF" points="40.863,0.036 39.294,17.805 47.483,17.805 45.745,0.036 	"/>
	<polygon fill="#FFFFFF" points="30.588,0.036 29.014,17.805 37.207,17.805 35.474,0.036 	"/>
	<polygon fill="#FFFFFF" points="17.774,29.051 0,30.78 0,35.666 17.774,37.24 	"/>
	<polygon fill="#FFFFFF" points="17.774,39.33 0,41.064 0,45.942 17.774,47.52 	"/>
	<polygon fill="#FFFFFF" points="20.619,0 18.963,18.954 0,20.614 0,25.666 17.865,27.249 27.239,27.249 27.239,27.225 
		27.257,27.225 27.257,17.86 25.674,0.027 	"/>
	<polygon fill="#FFFFFF" points="58.728,47.511 76.501,45.786 76.501,40.891 58.728,39.317 	"/>
	<polygon fill="#FFFFFF" points="58.728,37.221 76.501,35.497 76.501,30.615 58.728,29.041 	"/>
	<polygon fill="#FFFFFF" points="57.58,18.986 55.91,0.036 50.859,0.023 49.286,17.897 49.286,27.262 49.309,27.262 49.309,27.294 
		58.673,27.294 76.442,25.711 76.534,20.651 	"/>
	<polygon fill="#FFFFFF" points="30.739,76.557 35.611,76.557 37.185,58.773 29.005,58.773 	"/>
	<polygon fill="#FFFFFF" points="41.014,76.557 45.9,76.557 47.474,58.773 39.285,58.773 	"/>
	<polygon fill="#FFFFFF" points="76.396,50.9 59.794,49.427 58.728,49.326 58.623,49.326 49.249,49.326 49.249,58.811 
		50.828,76.538 55.864,76.538 57.355,59.501 57.539,57.626 76.501,55.951 	"/>
	<polygon fill="#FFFFFF" points="17.806,49.29 17.747,49.29 17.092,49.345 0,50.873 0,55.887 16.635,57.378 18.899,57.589 
		20.56,76.557 25.642,76.538 27.225,58.668 27.225,49.29 	"/>
</g>
</svg>
