<svg xmlns="http://www.w3.org/2000/svg" width="348.883" height="76.84"><path fill="#fff" d="M117.489 32.537v16.743c0 3.597-2.375 4.941-5.357 4.941-3.075 0-4.886-1.812-4.886-4.941v-17.315l-3.473.571v14.914c0 6.977 1.949 9.959 8.646 9.959 6.14 0 8.551-2.488 8.551-9.959v-15.485l-3.481.572z"/><polygon fill="#fff" points="137.874,56.839 137.874,40.388 153.47,57.41 153.539,57.41 153.539,32.537 150.062,33.095 150.062,48.979 134.479,31.965 134.401,31.965 134.401,57.273 137.874,56.839"/><polygon fill="#fff" points="170.388,56.839 170.388,31.965 166.907,32.537 166.907,57.131 170.388,56.839"/><polygon fill="#fff" points="196.47,31.965 190.275,48.828 190.202,48.828 184.25,31.965 180.806,32.537 190.202,57.41 190.275,57.41 199.942,32.537 196.47,31.965"/><polygon fill="#fff" points="224.047,56.839 225.036,53.659 214.02,53.659 214.02,45.786 222.203,45.786 222.203,42.593 214.02,42.593 214.02,35.711 224.268,35.711 223.517,32.537 210.547,32.537 210.547,56.839 224.047,56.839"/><path fill-rule="evenodd" clip-rule="evenodd" fill="#fff" d="M240.329 56.839v-11.794h.078l8.468 12.365 3.902-.988-7.342-10.179c3.334-.751 5.397-2.727 5.397-6.341 0-5.536-4.369-7.366-7.983-7.366h-5.997v24.737l3.477-.434zm0-21.128h2.484c2.69 0 4.547 1.323 4.547 4.191 0 2.653-2.177 4.36-4.547 4.36h-2.484v-8.551z"/><path fill="#fff" d="M262.733 53.472c2.204 2.352 4.23 3.938 7.562 3.938 4.219 0 7.548-3.078 7.548-7.407 0-8.398-11.12-6.121-11.12-11.125 0-2.301 1.582-3.724 3.815-3.724 2.025 0 3.366 1.317 4.689 2.685l2.338-2.328c-1.605-2.132-4.154-3.545-6.844-3.545-4.397 0-7.484 2.625-7.484 6.912 0 8.537 11.14 5.454 11.14 11.081 0 3.024-1.89 4.264-4.447 4.264-1.939 0-3.642-1.317-4.635-2.873l-2.562 2.122z"/><polygon fill="#fff" points="293.838,56.839 293.838,31.965 290.369,32.537 290.369,57.131 293.838,56.839"/><polygon fill="#fff" points="311.099,35.711 311.099,57.273 314.567,56.839 314.567,35.711 320.244,35.711 320.244,32.537 305.883,32.537 304.781,35.711 311.099,35.711"/><polygon fill="#fff" points="344.614,31.965 339.526,43.791 332.478,31.965 329.068,32.957 337.88,47.488 333.644,56.674 337.042,57.41 347.958,32.985 344.614,31.965"/><path fill="#fff" d="M118.248.654c-1.363-.343-2.708-.595-4.081-.595-6.139 0-11.588 6.56-11.588 12.723 0 6.762 5.243 12.727 12.115 12.727 1.454 0 2.841-.43 4.195-.896l.636-3.788c-1.428.883-3.088 1.491-4.763 1.491-5.128 0-8.72-4.785-8.72-9.671 0-4.853 3.902-9.387 8.866-9.387 1.528 0 2.8.274 4.072 1.162l-.732-3.766z"/><path fill-rule="evenodd" clip-rule="evenodd" fill="#fff" d="M129.374 12.782c0 7.155 5.718 12.727 12.75 12.727 7.018 0 12.755-5.572 12.755-12.727s-5.737-12.723-12.755-12.723c-7.031.001-12.75 5.568-12.75 12.723zm3.468 0c0-5.078 4.186-9.524 9.282-9.524 5.101 0 9.283 4.446 9.283 9.524 0 5.06-4.182 9.534-9.283 9.534-5.096 0-9.282-4.474-9.282-9.534z"/><polygon fill="#fff" points="168.736,24.933 168.736,8.5 184.341,25.509 184.4,25.509 184.4,0.622 180.934,1.194 180.934,17.074 165.332,0.06 165.273,0.06 165.273,25.354 168.736,24.933"/><path fill="#fff" d="M210.428.654c-1.341-.343-2.694-.595-4.072-.595-6.125 0-11.588 6.56-11.588 12.723 0 6.762 5.247 12.727 12.115 12.727 1.459 0 2.845-.43 4.181-.896l.641-3.788c-1.414.883-3.074 1.491-4.739 1.491-5.143 0-8.729-4.785-8.729-9.671 0-4.853 3.898-9.387 8.856-9.387 1.538 0 2.801.274 4.095 1.162l-.76-3.766z"/><path fill-rule="evenodd" clip-rule="evenodd" fill="#fff" d="M221.549 12.782c0 7.155 5.756 12.727 12.77 12.727 7.018 0 12.764-5.572 12.764-12.727s-5.746-12.723-12.764-12.723c-7.014.001-12.77 5.568-12.77 12.723zm3.487 0c0-5.078 4.171-9.524 9.282-9.524 5.091 0 9.287 4.446 9.287 9.524 0 5.06-4.196 9.534-9.287 9.534-5.111 0-9.282-4.474-9.282-9.534zM260.692 24.933v-11.794h.064l8.468 12.37 3.893-.993-7.324-10.174c3.331-.736 5.385-2.722 5.385-6.345 0-5.536-4.364-7.375-7.974-7.375h-5.998v24.732l3.486-.421zm0-21.117h2.48c2.695 0 4.538 1.318 4.538 4.182 0 2.653-2.164 4.36-4.538 4.36h-2.48v-8.542zM282.313 24.933h6.07c7.357 0 12.257-5.874 12.257-12.151s-4.9-12.16-12.257-12.16h-6.07v24.311zm3.477-21.117h2.594c4.101 0 8.774 3.413 8.774 8.967s-4.674 8.971-8.774 8.971h-2.594v-17.938z"/><polygon fill="#fff" points="314.429,24.933 314.429,0.06 310.952,0.622 310.952,25.226 314.429,24.933"/><path fill-rule="evenodd" clip-rule="evenodd" fill="#fff" d="M326.406 25.509l4.107-8.368h9.786l4.141 8.368 3.485-.714-12.373-24.735h-.074l-12.332 24.736 3.26.713zm5.572-11.555l3.422-6.982 3.474 6.982h-6.896z"/><polygon fill="#fff" points="106.042,76.557 106.042,68.217 113.957,76.84 113.984,76.84 113.984,64.231 112.223,64.524 112.223,72.567 104.322,63.948 104.294,63.948 104.294,76.775 106.042,76.557"/><polygon fill="#fff" points="146.539,76.557 147.042,74.941 141.447,74.941 141.447,70.947 145.601,70.947 145.601,69.343 141.447,69.343 141.447,65.852 146.644,65.852 146.265,64.231 139.69,64.231 139.69,76.557 146.539,76.557"/><path fill-rule="evenodd" clip-rule="evenodd" fill="#fff" d="M171.802 76.557h3.591c2.113 0 3.92-.971 3.92-3.413 0-1.313-.754-2.653-2.063-3.029.956-.622 1.629-1.453 1.629-2.631 0-1.843-1.505-3.252-3.362-3.252h-3.714v12.325h-.001zm1.752-5.563h1.61c1.445 0 2.384.612 2.384 2.149 0 1.373-.966 1.876-2.384 1.876h-1.61v-4.025zm0-5.217h1.61c1.295 0 1.949.586 1.949 1.706 0 1.269-.847 2.037-1.949 2.037h-1.61v-3.743zM205.98 76.557v-5.984h.032l4.305 6.268 1.968-.503-3.715-5.151c1.688-.385 2.722-1.387 2.722-3.221 0-2.8-2.205-3.733-4.044-3.733h-3.028v12.544l1.76-.22zm0-10.705h1.249c1.373 0 2.316.658 2.316 2.113 0 1.354-1.103 2.214-2.316 2.214h-1.249v-4.327zM236.921 76.84l2.072-4.241h4.96l2.113 4.241 1.762-.366-6.277-12.525h-.031l-6.25 12.525 1.651.366zm2.818-5.846l1.734-3.541 1.765 3.541h-3.499z"/><path fill="#fff" d="M271.534 74.854c1.121 1.185 2.142 1.985 3.83 1.985 2.132 0 3.82-1.564 3.82-3.741 0-4.274-5.632-3.116-5.632-5.646 0-1.172.805-1.895 1.935-1.895 1.016 0 1.702.663 2.374 1.372l1.186-1.189c-.814-1.079-2.1-1.793-3.478-1.793-2.214 0-3.783 1.309-3.783 3.505 0 4.327 5.646 2.753 5.646 5.618 0 1.527-.956 2.154-2.25 2.154-.989 0-1.85-.674-2.357-1.445l-1.291 1.075z"/><polygon fill="#fff" points="306.234,76.557 306.234,70.271 306.259,70.271 311.066,76.84 312.832,76.173 308.29,70.243 312.961,64.488 311.31,63.733 306.259,70.179 306.234,70.179 306.234,63.948 304.46,64.231 304.46,76.84 306.234,76.557"/><path fill-rule="evenodd" clip-rule="evenodd" fill="#fff" d="M337.989 76.84l2.069-4.241h4.967l2.097 4.241 1.761-.366-6.267-12.525h-.037l-6.263 12.525 1.673.366zm2.814-5.846l1.73-3.541 1.771 3.541h-3.501z"/><g fill="#fff"><polygon points="40.863,0.036 39.294,17.805 47.483,17.805 45.745,0.036"/><polygon points="30.588,0.036 29.014,17.805 37.207,17.805 35.474,0.036"/><polygon points="17.774,29.051 0,30.78 0,35.666 17.774,37.24"/><polygon points="17.774,39.33 0,41.064 0,45.942 17.774,47.52"/><polygon points="20.619,0 18.963,18.954 0,20.614 0,25.666 17.865,27.249 27.239,27.249 27.239,27.225 27.257,27.225 27.257,17.86 25.674,0.027"/><polygon points="58.728,47.511 76.501,45.786 76.501,40.891 58.728,39.317"/><polygon points="58.728,37.221 76.501,35.497 76.501,30.615 58.728,29.041"/><polygon points="57.58,18.986 55.91,0.036 50.859,0.023 49.286,17.897 49.286,27.262 49.309,27.262 49.309,27.294 58.673,27.294 76.442,25.711 76.534,20.651"/><polygon points="30.739,76.557 35.611,76.557 37.185,58.773 29.005,58.773"/><polygon points="41.014,76.557 45.9,76.557 47.474,58.773 39.285,58.773"/><polygon points="76.396,50.9 59.794,49.427 58.728,49.326 58.623,49.326 49.249,49.326 49.249,58.811 50.828,76.538 55.864,76.538 57.355,59.501 57.539,57.626 76.501,55.951"/><polygon points="17.806,49.29 17.747,49.29 17.092,49.345 0,50.873 0,55.887 16.635,57.378 18.899,57.589 20.56,76.557 25.642,76.538 27.225,58.668 27.225,49.29"/></g></svg>